<?xml version="1.0" encoding="UTF-8" standalone="no"?>
<svg
   xmlns:svg="http://www.w3.org/2000/svg"
   xmlns="http://www.w3.org/2000/svg"
   version="1.1"
   id="svg2"
   viewBox="0 0 1792 1792"
   height="1792"
   width="1792">
  <path
     fill="black"
     d="m 0,640 q 0,26 19,45 l 512,512 q 19,19 45,19 26,0 45,-19 19,-19 19,-45 l 0,-256 224,0 q 98,0 175.5,6 77.5,6 154,21.5 76.5,15.5 133,42.5 56.5,27 105.5,69.5 49,42.5 80,101 31,58.5 48.5,138.5 17.5,80 17.5,181 0,55 -5,123 0,6 -2.5,23.5 -2.5,17.5 -2.5,26.5 0,15 8.5,25 8.5,10 23.5,10 16,0 28,-17 7,-9 13,-22 6,-13 13.5,-30 7.5,-17 10.5,-24 127,-285 127,-451 0,-199 -53,-333 Q 1577,384 864,384 l -224,0 0,-256 Q 640,102 621,83 602,64 576,64 550,64 531,83 L 19,595 Q 0,614 0,640 Z" />
</svg>
