<?xml version="1.0" encoding="UTF-8" standalone="no"?>
<svg
   xmlns:dc="http://purl.org/dc/elements/1.1/"
   xmlns:cc="http://creativecommons.org/ns#"
   xmlns:rdf="http://www.w3.org/1999/02/22-rdf-syntax-ns#"
   xmlns:svg="http://www.w3.org/2000/svg"
   xmlns="http://www.w3.org/2000/svg"
   xmlns:sodipodi="http://sodipodi.sourceforge.net/DTD/sodipodi-0.dtd"
   xmlns:inkscape="http://www.inkscape.org/namespaces/inkscape"
   width="1792"
   height="1792"
   viewBox="0 0 1792 1792"
   id="svg2"
   version="1.1"
   inkscape:version="0.91 r13725"
   sodipodi:docname="welcome-view-arrow.svg">
  <metadata
     id="metadata10">
    <rdf:RDF>
      <cc:Work
         rdf:about="">
        <dc:format>image/svg+xml</dc:format>
        <dc:type
           rdf:resource="http://purl.org/dc/dcmitype/StillImage" />
      </cc:Work>
    </rdf:RDF>
  </metadata>
  <defs
     id="defs8" />
  <sodipodi:namedview
     pagecolor="#ffffff"
     bordercolor="#666666"
     borderopacity="1"
     objecttolerance="10"
     gridtolerance="10"
     guidetolerance="10"
     inkscape:pageopacity="0"
     inkscape:pageshadow="2"
     inkscape:window-width="1920"
     inkscape:window-height="1137"
     id="namedview6"
     showgrid="false"
     inkscape:zoom="0.13169643"
     inkscape:cx="-854.23729"
     inkscape:cy="896"
     inkscape:window-x="-8"
     inkscape:window-y="-8"
     inkscape:window-maximized="1"
     inkscape:current-layer="svg2" />
  <path
     d="m 0,640 q 0,26 19,45 l 512,512 q 19,19 45,19 26,0 45,-19 19,-19 19,-45 l 0,-256 224,0 q 98,0 175.5,6 77.5,6 154,21.5 76.5,15.5 133,42.5 56.5,27 105.5,69.5 49,42.5 80,101 31,58.5 48.5,138.5 17.5,80 17.5,181 0,55 -5,123 0,6 -2.5,23.5 -2.5,17.5 -2.5,26.5 0,15 8.5,25 8.5,10 23.5,10 16,0 28,-17 7,-9 13,-22 6,-13 13.5,-30 7.5,-17 10.5,-24 127,-285 127,-451 0,-199 -53,-333 Q 1577,384 864,384 l -224,0 0,-256 Q 640,102 621,83 602,64 576,64 550,64 531,83 L 19,595 Q 0,614 0,640 Z"
     id="path4"
     inkscape:connector-curvature="0" />
</svg>
