<svg id="Logo" xmlns="http://www.w3.org/2000/svg" viewBox="0 0 1800 361.17"><defs><style>.cls-1{fill:#fff;}</style></defs><title>datavisyn_RGB_white_monochrome</title><path class="cls-1" d="M1492,243.67l-61.2-159.42h-37.59l82.54,199.47q-7.18,26.63-21.63,38.15t-37.87,11.52v27.77q17.75,0,30.79-3.12a78.65,78.65,0,0,0,22.67-9,60.31,60.31,0,0,0,17.47-16.81,139.34,139.34,0,0,0,13.6-23.71q5.76-12.75,12.56-32.58l65.73-191.72h-35.89Z"/><path class="cls-1" d="M397.31,254.15q-4-4.63-4-20.31V148.47q0-32.68-16.62-50.34T322.13,80.47q-39.86,0-59.4,13.79t-19.55,43.06v9.07h34.19v-8.88a55.82,55.82,0,0,1,.66-9.44,23.79,23.79,0,0,1,3.12-7.93,17.54,17.54,0,0,1,7.08-6.61,49.5,49.5,0,0,1,12.84-4.16,99.91,99.91,0,0,1,19.93-1.7q21.91,0,29.37,7.74t7.46,22.1q0,10-2.17,14.45t-8,6.52l-41.74,15.3Q266,188.33,251.77,200.89t-14.26,32.77q0,55,58,55a93.3,93.3,0,0,0,24.27-3,63.38,63.38,0,0,0,19-8.21,90.05,90.05,0,0,0,12.94-10.29,64,64,0,0,0,9-11q4.91,15.3,14.17,22.57T403,286h7.18l4.16-27.2Q401.28,258.78,397.31,254.15Zm-39.48-25.78Q353.68,241.78,336.3,252t-34,10.2q-18.13,0-24.56-6.33t-6.42-22.95a24.91,24.91,0,0,1,9.06-19.83q9.07-7.74,32.3-16.62l45.14-17.19Z"/><path class="cls-1" d="M1796.13,116.45a54.33,54.33,0,0,0-11.71-18.51q-7.84-8.22-21.34-12.85t-31.45-4.63q-39.29,0-59.31,23.23V84.25H1636.8V222.49h35.51V141.86q0-15.3,12.66-24.75t37.59-9.44q19.27,0,30.6,7.46t11.33,21.82V284.47H1800V139A63.65,63.65,0,0,0,1796.13,116.45Z"/><path class="cls-1" d="M128.07,88a115.76,115.76,0,0,0-21.82-5.48,142.57,142.57,0,0,0-22.57-2.08q-42.5,0-63.09,17T0,145.64v75.56q0,31,19.17,49.2t60.16,18.23a92.94,92.94,0,0,0,29.85-5.1q15.11-5.1,24.37-12.28l5.86,13.22h24.18V0H128.07Zm0,160.74q-7.37,4.53-20,8.22a94.18,94.18,0,0,1-26.44,3.68q-20.59,0-33.34-9.45T35.51,223.83V141.67q0-17.56,13.13-25.78t35.42-8.21q26.82,0,44,8.31Z"/><path class="cls-1" d="M538.21,250q-10.86-6.14-10.86-25V22.29H497.5l-4.34,62v0H458.43v35.56h33.4V227.24q0,32.3,18.6,45.52T571,286h5.29L580,256.13h-4Q549.07,256.13,538.21,250Z"/><path class="cls-1" d="M799.05,254.15q-4-4.63-4-20.31V148.47q0-32.68-16.62-50.34T723.88,80.47q-39.86,0-59.41,13.79t-19.55,43.06v9.07h34.19v-8.88a56.1,56.1,0,0,1,.66-9.44,23.79,23.79,0,0,1,3.12-7.93,17.55,17.55,0,0,1,7.09-6.61,49.45,49.45,0,0,1,12.84-4.16,99.91,99.91,0,0,1,19.93-1.7q21.91,0,29.37,7.74t7.46,22.1q0,10-2.17,14.45t-8,6.52l-41.74,15.3q-39.86,14.55-54.11,27.11t-14.26,32.77q0,55,58,55a93.29,93.29,0,0,0,24.27-3,63.32,63.32,0,0,0,19-8.21,90.25,90.25,0,0,0,12.94-10.29,64,64,0,0,0,9-11q4.91,15.3,14.17,22.57T804.72,286h7.18l4.16-27.2Q803,258.78,799.05,254.15Zm-39.48-25.78Q755.42,241.78,738,252t-34,10.2q-18.13,0-24.56-6.33t-6.42-22.95a24.92,24.92,0,0,1,9.07-19.83q9.07-7.74,32.3-16.62l45.14-17.19Z"/><rect class="cls-1" x="1101.44" y="84.25" width="35.51" height="200.22"/><path class="cls-1" d="M1306.46,174l-47-18.51q-10.39-3.59-13.79-8t-3.4-13.88q0-9.63,2.83-14.92t11.24-8.12q8.4-2.83,24.46-2.83a128.25,128.25,0,0,1,27.39,3.49,159.78,159.78,0,0,1,25.31,7.46l8.12-27.2q-27.58-11-67.43-11-35.52,0-50.25,13.88t-14.73,40.89q0,18.89,8.69,29.66t30.41,18.32l47.6,17.57q13.22,4.91,16.81,11.24t3.59,19.36q0,14-9.07,22t-31.17,8a115.84,115.84,0,0,1-33.81-4.82q-15.87-4.82-25.69-10.29l-8.69,26.07q10.2,5.67,29.28,11t43.63,5.29q33.62,0,49.68-16T1346.51,231q0-24.17-7.75-35.79T1306.46,174Z"/><polygon class="cls-1" points="953.08 246.69 892.82 84.25 857.12 84.25 934.75 284.47 970.64 284.47 1041.48 84.25 1006.72 84.25 953.08 246.69"/><rect class="cls-1" x="1101.44" y="23.01" width="35.51" height="35.51"/><rect class="cls-1" x="553.07" y="84.25" width="35.61" height="35.61"/><rect class="cls-1" x="1636.8" y="248.21" width="35.51" height="36.25"/></svg>